<?xml version="1.0" standalone="no"?>
<!DOCTYPE svg PUBLIC "-//W3C//DTD SVG 20010904//EN"
 "http://www.w3.org/TR/2001/REC-SVG-20010904/DTD/svg10.dtd">
<svg version="1.0" xmlns="http://www.w3.org/2000/svg"
 width="2500.000000pt" height="2500.000000pt" viewBox="0 0 2500.000000 2500.000000"
 preserveAspectRatio="xMidYMid meet">
<metadata>
Created by potrace 1.11, written by Peter Selinger 2001-2013
</metadata>
<g transform="translate(0.000000,2500.000000) scale(0.100000,-0.100000)"
fill="#000000" stroke="none">
<path d="M11677 19792 c-15 -9 -31 -30 -36 -47 -4 -16 -8 -460 -8 -985 -1
-525 -2 -964 -2 -976 l-1 -21 -567 0 c-531 0 -633 -3 -701 -19 -111 -27 -253
-107 -340 -193 -60 -58 -83 -93 -235 -351 -143 -243 -139 -236 -179 -305 -19
-33 -65 -112 -103 -175 -38 -63 -74 -124 -80 -135 -5 -11 -49 -85 -96 -165
-129 -217 -284 -480 -306 -520 -21 -37 -97 -164 -113 -190 -5 -8 -18 -31 -28
-50 -10 -19 -42 -72 -70 -118 -29 -46 -52 -85 -52 -88 0 -2 -12 -23 -27 -47
-14 -23 -52 -88 -83 -144 l-57 -102 -67 45 c-91 61 -295 184 -305 184 -5 0
-14 7 -21 15 -7 9 -15 13 -18 10 -3 -3 -10 -1 -16 4 -39 32 -357 182 -531 251
-367 146 -820 268 -1170 316 -58 7 -97 13 -125 18 -14 2 -54 7 -90 11 -36 3
-79 8 -96 11 -98 15 -415 29 -669 28 -225 0 -316 -4 -525 -20 -53 -4 -305 -35
-385 -48 -27 -4 -106 -18 -130 -22 -10 -2 -37 -6 -59 -10 -22 -3 -44 -7 -47
-10 -4 -2 -24 -6 -45 -9 -50 -8 -386 -91 -439 -110 -46 -16 -143 -45 -165 -51
-22 -5 -199 -68 -240 -86 -19 -8 -37 -15 -40 -16 -12 -2 -141 -54 -220 -89
-83 -37 -400 -195 -455 -228 -33 -19 -67 -38 -75 -42 -8 -3 -17 -9 -20 -12 -3
-3 -23 -15 -45 -26 -72 -37 -384 -249 -510 -347 -5 -5 -39 -31 -75 -59 -36
-28 -67 -54 -70 -58 -3 -4 -18 -17 -34 -29 -110 -84 -353 -315 -493 -468 -38
-42 -118 -133 -144 -164 -11 -14 -30 -36 -42 -50 -12 -14 -45 -54 -72 -90 -28
-36 -53 -67 -56 -70 -3 -3 -47 -63 -97 -135 -51 -71 -96 -134 -100 -140 -47
-64 -225 -366 -285 -485 -21 -41 -43 -82 -48 -90 -8 -13 -80 -168 -114 -245
-33 -75 -77 -181 -79 -190 -2 -5 -8 -23 -15 -40 -22 -53 -150 -435 -145 -435
2 0 -1 -12 -7 -27 -9 -24 -64 -236 -74 -283 -2 -8 -14 -72 -29 -141 -42 -208
-74 -441 -93 -684 -16 -200 -8 -839 12 -990 2 -16 7 -61 10 -100 6 -66 40
-301 51 -355 3 -14 7 -38 10 -55 2 -16 8 -50 14 -75 6 -25 12 -54 14 -65 2
-11 12 -51 21 -90 9 -38 18 -79 21 -90 9 -45 58 -217 91 -319 19 -60 36 -116
38 -125 4 -16 87 -238 104 -276 5 -11 30 -69 56 -130 46 -107 161 -342 203
-417 12 -21 38 -68 58 -105 21 -37 40 -70 43 -73 3 -3 15 -21 25 -40 28 -51
224 -344 247 -368 10 -12 19 -24 19 -27 0 -6 108 -146 145 -189 6 -6 32 -38
60 -71 303 -363 696 -717 1086 -976 52 -35 96 -67 97 -71 2 -4 7 -8 12 -8 5 0
44 -22 87 -49 80 -49 264 -155 273 -156 9 -2 85 -40 90 -45 18 -19 309 -150
470 -211 58 -22 112 -44 120 -48 30 -16 447 -146 495 -154 11 -2 27 -7 35 -10
36 -13 330 -75 395 -83 22 -3 47 -7 55 -9 14 -4 28 -6 128 -20 20 -3 51 -8 67
-10 17 -3 50 -7 75 -10 44 -4 111 -10 220 -22 151 -15 907 -7 1035 12 17 2 62
7 100 10 39 4 79 8 90 10 11 2 45 7 75 10 30 3 69 8 85 11 106 18 144 24 175
29 19 3 46 8 60 10 55 11 76 15 105 21 17 3 55 11 85 19 30 8 66 16 80 18 150
27 609 177 815 266 22 10 60 26 85 36 204 86 602 308 801 447 53 38 102 68
109 68 6 0 31 -13 55 -30 24 -16 48 -30 54 -30 6 0 11 -4 11 -10 0 -5 4 -10 9
-10 6 0 30 -13 54 -30 25 -16 48 -30 52 -30 4 0 19 -8 33 -18 52 -37 509 -272
527 -272 4 0 30 -11 58 -24 141 -64 637 -243 637 -230 0 3 8 0 18 -5 18 -10
229 -67 281 -76 16 -3 40 -9 53 -14 13 -5 26 -9 31 -9 4 0 42 -7 85 -16 103
-22 170 -34 212 -41 19 -3 49 -8 65 -12 17 -3 41 -7 55 -9 14 -2 41 -5 60 -8
73 -11 126 -18 160 -21 19 -2 58 -6 85 -9 104 -12 133 -15 245 -23 153 -10
713 -10 870 0 137 10 151 11 260 23 41 4 87 8 103 8 15 0 27 4 27 9 0 4 4 5
10 2 8 -5 248 26 315 40 22 5 50 10 142 25 34 6 68 12 75 15 7 2 24 6 38 9
106 19 430 100 549 138 252 79 501 168 616 218 22 10 90 39 150 65 410 177
880 449 1262 731 122 91 114 90 157 20 29 -47 64 -85 169 -188 54 -54 105 -98
113 -98 8 0 14 -4 14 -9 0 -8 180 -128 325 -218 157 -97 397 -221 580 -300
189 -81 255 -106 395 -152 52 -18 102 -34 110 -38 8 -3 20 -7 25 -8 6 -2 60
-17 120 -35 109 -32 127 -37 175 -46 14 -3 34 -8 45 -11 11 -4 25 -8 30 -9 6
-1 55 -11 110 -22 182 -38 176 -37 295 -56 155 -25 173 -27 225 -31 28 -2 66
-7 85 -10 77 -11 245 -23 438 -30 79 -3 148 -7 152 -10 5 -3 11 -1 15 4 3 6
15 7 28 2 12 -5 31 -5 41 -1 11 3 37 3 58 0 23 -5 38 -3 38 3 0 5 5 5 13 -2 8
-6 16 -9 19 -6 3 3 74 7 159 10 85 3 165 7 179 10 14 2 68 7 120 10 52 4 97 9
100 10 3 2 37 7 75 10 38 4 78 9 90 11 11 2 52 9 90 14 39 6 77 12 85 15 8 2
29 7 45 10 17 2 41 7 55 10 14 3 48 9 75 15 116 23 229 51 375 94 85 25 163
48 173 51 20 5 159 53 197 68 14 6 30 11 35 12 19 5 211 83 278 114 37 17 70
31 72 31 7 0 261 127 340 170 64 34 323 189 340 202 6 5 28 20 50 34 204 134
478 347 639 498 185 173 365 361 482 501 32 39 62 72 66 73 5 2 8 10 8 17 0 7
3 15 8 17 8 3 46 49 77 92 11 16 25 33 30 40 49 52 250 359 350 531 75 130
223 426 270 540 20 50 43 104 50 120 25 57 66 169 91 244 14 42 29 85 33 96 5
11 14 40 21 65 7 25 19 64 26 88 8 23 32 113 53 200 50 200 53 213 57 237 1
11 14 81 27 155 14 74 28 160 32 190 3 30 10 70 15 88 5 19 5 32 -1 32 -6 0
-6 7 -1 18 5 9 10 39 11 67 2 27 5 53 7 57 11 18 19 266 18 578 -1 312 -4 418
-19 548 -3 23 -7 61 -10 85 -16 144 -24 205 -30 237 -12 57 -15 76 -20 110 -6
42 -10 61 -30 160 -2 14 -11 52 -19 85 -8 33 -21 89 -29 125 -55 235 -152 527
-267 805 -52 126 -219 468 -232 476 -5 3 -8 8 -7 10 3 4 -38 80 -77 141 -13
21 -24 42 -24 48 0 5 -4 10 -10 10 -5 0 -10 4 -10 9 0 9 -99 171 -110 181 -4
3 -17 23 -30 45 -13 22 -27 42 -30 45 -4 3 -21 28 -40 55 -19 28 -36 52 -39
55 -4 3 -26 32 -50 65 -59 80 -204 256 -266 324 -143 156 -191 205 -359 366
-66 64 -173 155 -291 249 -139 111 -133 107 -175 136 -19 13 -37 27 -40 30
-15 17 -324 218 -419 273 -185 105 -443 235 -596 299 -160 67 -265 109 -284
114 -9 2 -90 29 -181 60 -91 30 -173 56 -182 57 -10 1 -18 5 -18 10 0 4 -4 6
-8 3 -5 -3 -37 4 -73 14 -35 11 -73 21 -84 23 -11 2 -27 7 -35 10 -8 3 -28 8
-45 11 -16 3 -61 13 -100 21 -38 9 -81 18 -95 20 -14 2 -50 9 -80 15 -30 6
-71 13 -90 15 -19 3 -46 7 -60 10 -14 3 -43 8 -65 10 -37 4 -86 11 -145 20
-14 3 -54 7 -90 10 -36 3 -83 8 -105 10 -193 24 -859 24 -1040 0 -16 -2 -66
-7 -110 -10 -83 -6 -95 -8 -180 -19 -27 -4 -66 -9 -85 -12 -97 -13 -224 -35
-368 -64 -53 -12 -110 -23 -127 -26 -16 -3 -37 -8 -45 -11 -8 -3 -24 -8 -35
-10 -61 -11 -390 -109 -482 -144 -136 -50 -174 -64 -253 -97 -124 -51 -417
-190 -490 -232 -350 -204 -548 -339 -659 -447 -30 -29 -58 -50 -62 -46 -4 5
-10 22 -12 38 -10 61 -55 169 -97 235 -12 19 -127 215 -153 260 -16 30 -153
260 -210 355 -9 17 -20 38 -23 48 -4 9 -10 17 -15 17 -5 0 -9 4 -9 8 0 7 -228
401 -311 537 -10 17 -24 41 -32 55 -21 37 -50 89 -87 150 -59 99 -392 664
-412 700 -20 35 -74 104 -113 145 -41 43 -133 105 -206 139 -75 35 -87 38
-184 58 -29 5 -298 10 -637 10 -324 1 -588 4 -589 7 0 3 -1 452 -2 997 l-2
991 -30 26 -30 26 -615 0 c-565 0 -617 -1 -643 -17z m8143 -4966 c80 -3 163
-8 185 -11 78 -9 151 -17 194 -21 24 -2 51 -6 60 -8 9 -3 39 -8 66 -11 28 -4
57 -8 65 -10 8 -2 30 -7 48 -10 18 -3 65 -12 105 -21 39 -9 101 -22 137 -30
36 -8 76 -18 90 -23 14 -5 59 -19 100 -31 102 -30 207 -66 315 -107 89 -34
102 -40 200 -83 172 -76 458 -233 577 -317 26 -18 50 -33 54 -33 3 0 11 -6 19
-12 12 -12 92 -71 270 -199 234 -169 454 -373 635 -588 25 -29 50 -59 57 -65
25 -27 202 -278 238 -338 153 -255 266 -494 341 -718 8 -25 17 -52 20 -60 3
-8 5 -15 4 -15 -1 0 4 -13 10 -30 7 -16 14 -37 16 -45 2 -8 13 -46 24 -85 11
-38 22 -79 24 -90 3 -11 13 -58 24 -105 20 -84 49 -238 56 -295 2 -16 6 -50
10 -75 8 -50 12 -95 21 -220 3 -47 8 -103 10 -125 7 -60 6 -430 0 -510 -3 -38
-8 -97 -11 -130 -8 -87 -14 -152 -19 -220 -2 -33 -5 -60 -5 -60 -2 0 -7 -28
-16 -90 -4 -33 -9 -67 -10 -75 -6 -44 -18 -104 -36 -185 -11 -49 -21 -101 -23
-115 -4 -28 -32 -132 -61 -225 -10 -33 -18 -62 -19 -65 -12 -50 -104 -299
-154 -413 -11 -26 -21 -49 -21 -52 -2 -14 -174 -342 -190 -363 -11 -14 -20
-29 -20 -35 0 -6 -6 -18 -14 -26 -8 -9 -21 -27 -28 -41 -23 -42 -112 -175
-120 -178 -5 -2 -8 -10 -8 -17 0 -8 -6 -18 -13 -22 -7 -4 -20 -21 -30 -36 -53
-83 -242 -302 -382 -443 -176 -177 -324 -303 -517 -441 -129 -93 -338 -223
-356 -223 -6 0 -12 -4 -14 -9 -1 -5 -75 -45 -163 -88 -164 -80 -209 -101 -330
-148 -38 -15 -79 -31 -90 -36 -49 -21 -282 -93 -385 -119 -95 -24 -252 -59
-290 -65 -14 -2 -41 -7 -60 -10 -19 -4 -48 -9 -65 -11 -16 -2 -46 -6 -65 -9
-19 -3 -57 -8 -85 -11 -27 -3 -66 -7 -85 -9 -294 -32 -896 -21 -1130 20 -14 2
-45 7 -70 10 -58 8 -273 46 -280 50 -3 2 -21 6 -40 9 -32 5 -83 18 -195 48
-217 58 -463 151 -670 254 -177 87 -177 87 -390 217 -10 7 -25 17 -32 22 -7 6
-44 33 -84 60 -74 51 -257 195 -318 250 -19 16 -46 40 -60 53 -14 13 -61 57
-103 99 l-78 76 0 2986 0 2986 58 57 c87 86 136 131 227 203 27 22 55 45 61
50 32 28 55 45 60 45 3 0 12 7 21 16 26 25 291 197 388 251 195 108 479 233
665 291 122 38 205 62 230 66 14 3 25 5 25 6 0 1 7 3 15 5 8 2 58 13 110 25
102 23 107 24 160 33 19 4 51 9 70 13 19 3 44 7 55 9 11 1 40 5 65 9 45 7 56
8 180 21 36 3 76 8 90 11 14 2 113 7 220 10 107 4 196 8 198 9 1 1 28 1 60 -1
31 -1 122 -5 202 -8z m-7475 -30 c97 -9 190 -18 220 -21 17 -2 52 -7 79 -10
59 -7 242 -34 274 -40 12 -3 33 -7 47 -10 14 -3 35 -7 48 -10 12 -2 36 -7 52
-10 71 -14 350 -87 381 -100 19 -8 34 -12 34 -10 0 2 57 -16 128 -41 349 -123
669 -281 977 -482 71 -47 276 -191 285 -202 3 -3 30 -24 60 -47 30 -23 67 -53
81 -65 15 -13 40 -34 58 -47 17 -13 31 -27 31 -32 0 -6 -25 -38 -88 -114 -10
-11 -44 -54 -77 -95 -33 -41 -67 -81 -75 -90 -9 -9 -29 -33 -45 -55 -17 -22
-37 -46 -45 -55 -8 -9 -26 -31 -40 -49 -14 -18 -32 -40 -40 -49 -8 -8 -37 -43
-65 -77 -57 -72 -261 -320 -287 -350 -9 -11 -125 -153 -258 -315 -133 -162
-247 -299 -254 -304 -9 -6 -36 10 -87 51 -233 188 -537 375 -749 462 -30 12
-65 26 -77 32 -59 24 -71 28 -108 40 -22 6 -51 16 -63 21 -38 14 -253 66 -302
73 -25 4 -63 10 -85 15 -22 4 -47 8 -55 8 -8 0 -35 3 -60 6 -69 10 -207 19
-250 16 -14 0 -49 1 -77 3 -29 2 -53 1 -53 -2 0 -3 -30 -6 -68 -7 -162 -1
-420 -50 -547 -103 -11 -5 -51 -21 -90 -37 -86 -34 -253 -120 -320 -165 -72
-47 -205 -149 -236 -179 -15 -14 -46 -43 -70 -66 -146 -135 -284 -320 -406
-544 -27 -50 -122 -268 -128 -295 -2 -5 -12 -39 -24 -75 -12 -36 -26 -85 -32
-110 -6 -25 -13 -53 -15 -62 -7 -29 -23 -105 -28 -133 -2 -11 -7 -49 -11 -85
-4 -36 -10 -85 -14 -110 -4 -25 -6 -138 -5 -250 3 -200 5 -233 18 -315 3 -22
8 -57 11 -79 2 -21 7 -46 9 -55 3 -9 7 -32 10 -51 4 -19 11 -53 16 -75 6 -22
12 -47 14 -55 17 -68 28 -108 36 -125 5 -11 14 -38 21 -60 7 -22 20 -59 30
-83 10 -23 18 -45 18 -47 0 -3 12 -28 26 -55 14 -28 37 -74 52 -102 40 -80
116 -200 180 -286 118 -159 384 -400 550 -499 74 -43 269 -140 328 -162 58
-22 139 -50 160 -55 6 -1 30 -8 55 -15 51 -15 57 -16 160 -37 41 -8 91 -17
110 -20 19 -2 55 -7 80 -11 60 -10 497 -10 585 0 158 17 219 26 295 44 36 8
72 16 81 18 9 2 49 13 90 25 41 12 79 23 84 25 6 1 21 7 35 12 14 6 50 21 80
33 82 32 267 130 295 156 l24 22 -4 373 c-2 206 -4 422 -4 481 l-1 107 -784
-5 -784 -5 -4 68 c-1 37 -3 401 -3 808 l0 740 305 1 c560 3 2711 16 3034 17
l320 2 2 -225 c3 -288 14 -2098 18 -2812 2 -543 2 -548 -18 -565 -12 -10 -50
-41 -86 -68 -36 -28 -67 -53 -70 -56 -12 -14 -264 -191 -365 -256 -214 -137
-562 -324 -750 -403 -11 -4 -36 -15 -55 -23 -19 -8 -66 -27 -105 -42 -38 -15
-83 -33 -100 -40 -33 -14 -302 -106 -319 -109 -6 -1 -36 -10 -66 -19 -30 -9
-116 -32 -190 -51 -115 -29 -161 -40 -270 -61 -8 -2 -17 -4 -20 -5 -3 -1 -9
-2 -13 -1 -5 1 -25 -3 -45 -9 -21 -5 -55 -12 -77 -14 -39 -5 -102 -15 -139
-22 -10 -2 -44 -6 -75 -10 -31 -3 -65 -8 -76 -10 -11 -2 -60 -6 -110 -9 -49
-4 -97 -8 -105 -10 -16 -4 -325 -18 -420 -18 -69 0 -385 13 -425 18 -16 2 -64
6 -105 10 -41 3 -86 8 -100 10 -14 3 -45 7 -70 10 -25 3 -70 9 -100 15 -30 5
-71 11 -90 14 -31 5 -92 17 -235 46 -264 55 -679 200 -955 334 -182 89 -431
229 -438 248 -2 4 -8 8 -13 8 -5 0 -32 16 -59 35 -28 19 -74 52 -102 72 -281
196 -618 519 -808 773 -14 18 -38 49 -54 69 -31 40 -198 287 -209 311 -4 8
-21 38 -37 65 -51 86 -197 385 -243 500 -69 171 -173 506 -193 620 -1 11 -10
54 -19 95 -8 41 -20 104 -26 140 -5 36 -12 78 -15 94 -5 29 -11 81 -18 161 -2
22 -7 65 -11 95 -9 83 -18 335 -13 379 0 3 -1 8 -2 11 -6 16 -6 50 1 50 4 0 4
13 -1 29 -4 16 -6 32 -3 35 3 2 6 52 8 111 2 58 7 133 11 168 4 34 8 76 9 92
4 49 16 139 20 155 2 8 7 39 10 69 3 30 8 57 9 60 4 6 14 59 21 106 1 11 8 38
13 60 6 22 14 54 17 70 3 17 12 55 20 85 9 30 18 65 20 77 9 41 97 298 137
397 155 394 388 782 661 1106 44 52 88 102 96 111 220 229 413 404 565 514 16
11 47 34 70 51 201 150 551 347 816 458 109 46 257 102 290 111 8 2 42 13 75
24 32 12 68 24 80 26 11 3 79 21 150 40 110 30 187 48 300 71 23 4 91 15 122
19 11 2 29 5 40 8 10 3 47 9 83 12 36 4 72 8 80 10 27 5 133 15 204 20 38 3
71 6 73 9 5 5 682 -2 748 -8z m-6465 -40 c19 -2 69 -7 110 -10 111 -9 188 -18
245 -30 11 -2 43 -7 70 -11 128 -18 328 -61 450 -98 39 -11 75 -21 80 -21 11
-1 108 -33 140 -45 11 -5 60 -23 109 -41 49 -18 105 -39 125 -48 20 -9 38 -16
41 -17 3 0 32 -14 65 -29 33 -15 76 -35 95 -44 45 -20 213 -112 223 -121 4 -4
-5 -21 -20 -37 -15 -16 -65 -76 -111 -133 -255 -315 -471 -654 -646 -1014 -72
-149 -104 -221 -161 -362 -23 -57 -69 -180 -71 -190 -1 -5 -9 -27 -18 -49
l-16 -38 -37 23 c-151 91 -373 199 -441 214 -9 2 -33 9 -52 15 -57 18 -181 47
-240 56 -68 10 -74 11 -80 14 -13 5 -176 13 -265 13 -98 0 -239 -8 -282 -17
-11 -2 -43 -8 -70 -12 -54 -9 -62 -11 -65 -14 -2 -1 -12 -3 -23 -4 -25 -3
-133 -34 -160 -45 -11 -5 -42 -17 -70 -26 -82 -29 -256 -118 -341 -175 -158
-107 -304 -239 -412 -373 -31 -40 -59 -74 -62 -77 -49 -47 -247 -407 -264
-480 -1 -3 -4 -9 -7 -15 -18 -30 -100 -314 -112 -390 -3 -16 -8 -46 -12 -66
-23 -134 -32 -274 -30 -458 2 -113 5 -219 8 -236 3 -16 8 -52 12 -80 5 -46 24
-156 40 -230 47 -218 165 -508 279 -685 25 -39 46 -75 46 -79 0 -5 3 -11 8
-13 4 -1 26 -28 48 -58 135 -180 336 -363 521 -473 126 -76 335 -165 449 -192
11 -2 39 -10 64 -16 25 -6 56 -13 70 -15 14 -2 39 -6 55 -8 116 -19 181 -23
340 -21 99 2 199 5 223 9 23 3 59 8 80 11 20 2 48 7 62 10 48 10 90 17 95 16
2 0 23 6 45 14 22 8 40 12 40 8 0 -3 6 -1 13 5 6 5 28 13 47 18 43 10 41 9 65
19 187 75 274 118 377 186 l56 37 17 -52 c24 -74 126 -327 169 -419 20 -43 36
-82 36 -87 0 -5 3 -10 8 -12 4 -1 29 -48 56 -103 26 -55 75 -146 107 -202 32
-57 59 -105 59 -107 0 -3 13 -24 28 -48 16 -24 64 -97 108 -163 98 -149 314
-437 364 -485 21 -20 80 -95 80 -102 0 -4 -6 -8 -14 -8 -8 0 -16 -4 -18 -8 -3
-7 -97 -60 -223 -125 -80 -41 -216 -103 -260 -118 -22 -8 -42 -16 -45 -19 -3
-3 -9 -6 -15 -7 -5 -1 -60 -20 -122 -42 -231 -83 -546 -158 -818 -195 -71 -10
-126 -16 -280 -31 -225 -22 -659 -22 -850 0 -22 3 -60 7 -85 10 -62 6 -130 15
-160 20 -143 23 -256 45 -360 70 -441 103 -912 308 -1305 568 -81 53 -262 183
-275 197 -3 3 -30 25 -60 50 -98 80 -133 112 -275 255 -118 117 -224 232 -270
293 -5 7 -15 18 -20 25 -203 244 -421 608 -563 942 -54 126 -129 326 -137 365
-2 9 -14 54 -28 100 -31 102 -77 289 -83 338 -2 19 -6 37 -8 41 -3 3 -7 27
-11 51 -3 25 -10 70 -15 100 -21 127 -36 268 -46 420 -6 106 -6 476 0 550 3
30 8 93 11 140 4 47 9 94 11 105 2 11 6 46 9 79 4 33 8 62 10 66 2 3 6 26 10
50 10 75 15 104 21 121 2 10 6 30 8 45 10 70 95 390 125 467 6 15 8 27 5 27
-4 0 -2 6 3 13 8 9 43 103 48 127 1 3 9 22 18 44 9 21 17 41 17 45 1 3 9 24
20 46 11 22 19 44 20 48 1 27 225 458 242 465 4 2 8 8 8 13 0 18 204 320 274
406 158 194 165 201 321 358 116 117 212 204 316 287 19 16 49 40 68 55 18 16
90 67 160 115 69 49 131 91 137 95 5 5 21 14 35 22 282 166 436 243 677 338
89 35 171 66 180 68 9 2 31 9 47 15 17 6 37 13 45 15 8 2 68 19 133 38 64 19
117 32 117 30 0 -3 6 0 13 6 8 6 16 8 19 6 3 -3 17 -1 32 5 15 5 41 12 59 15
18 3 55 10 82 15 123 25 194 37 260 45 28 3 64 8 80 10 43 6 117 13 220 21 50
4 92 8 93 9 6 5 593 -3 632 -9z"/>
<path d="M19386 12809 c-26 -4 -65 -9 -85 -10 -20 -2 -40 -6 -46 -9 -5 -3 -17
-6 -25 -5 -8 1 -28 -3 -45 -7 -16 -5 -43 -11 -60 -14 -16 -3 -61 -15 -100 -26
-38 -12 -72 -22 -75 -23 -3 -1 -14 -5 -25 -10 -11 -4 -53 -21 -93 -37 -41 -16
-102 -43 -135 -60 -68 -35 -259 -155 -267 -169 -3 -4 -5 -120 -4 -256 2 -136
5 -639 9 -1118 3 -478 6 -874 7 -880 0 -5 0 -48 -1 -95 0 -47 1 -331 2 -632
l3 -547 37 -26 c21 -14 40 -25 42 -25 2 0 53 -28 112 -62 107 -62 123 -71 195
-102 54 -24 175 -62 254 -81 91 -22 94 -22 151 -31 26 -3 56 -8 66 -10 39 -7
216 -17 292 -17 127 0 274 12 350 29 39 8 85 17 103 20 120 17 421 148 572
250 215 144 415 352 552 573 59 95 148 276 178 361 13 36 26 70 30 75 4 6 11
24 15 40 5 17 9 35 11 40 50 180 86 370 100 520 17 193 2 526 -30 665 -3 14
-8 41 -10 61 -3 20 -12 65 -21 100 -15 58 -22 83 -46 159 -25 82 -90 239 -134
326 -259 509 -705 872 -1220 992 -92 22 -112 25 -225 41 -77 10 -365 10 -434
0z"/>
</g>
</svg>
